<svg width="16" height="20" viewBox="0 0 16 20" fill="none" xmlns="http://www.w3.org/2000/svg">
<path d="M0.500383 1.00057L0.500383 19.0006C0.500954 19.1828 0.551217 19.3614 0.645761 19.5172C0.740304 19.673 0.875547 19.8001 1.03693 19.8848C1.19832 19.9694 1.37974 20.0085 1.56167 19.9977C1.74359 19.9869 1.91913 19.9267 2.06938 19.8236L15.0694 10.8236C15.6084 10.4506 15.6084 9.55257 15.0694 9.17857L2.06938 0.178573C1.91944 0.074398 1.74381 0.0133073 1.56159 0.00193832C1.37936 -0.00943065 1.19751 0.029357 1.03578 0.114087C0.874047 0.198817 0.73863 0.326249 0.644239 0.482537C0.549849 0.638826 0.500096 0.817993 0.500383 1.00057Z" fill="white"/>
</svg>
