<svg width="16" height="20" viewBox="0 0 16 20" fill="none" xmlns="http://www.w3.org/2000/svg">
<path d="M15.4996 19.0004L15.4996 1.0004C15.499 0.818161 15.4488 0.639527 15.3542 0.483727C15.2597 0.327926 15.1245 0.200861 14.9631 0.116207C14.8017 0.0315534 14.6203 -0.00748321 14.4383 0.00329988C14.2564 0.014083 14.0809 0.0742767 13.9306 0.177403L0.930617 9.1774C0.391617 9.5504 0.391617 10.4484 0.930617 10.8224L13.9306 19.8224C14.0806 19.9266 14.2562 19.9877 14.4384 19.999C14.6206 20.0104 14.8025 19.9716 14.9642 19.8869C15.126 19.8022 15.2614 19.6747 15.3558 19.5184C15.4502 19.3622 15.4999 19.183 15.4996 19.0004Z" fill="white"/>
</svg>
